<svg width="32" height="32" viewBox="0 0 32 32" fill="none" xmlns="http://www.w3.org/2000/svg">
<circle cx="16" cy="16" r="16" fill="#0D28A6"/>
<path d="M25.1667 8.50008C24.3687 9.06298 23.4851 9.4935 22.55 9.77508C22.0482 9.198 21.3812 8.78899 20.6392 8.60335C19.8973 8.41771 19.1163 8.46441 18.4018 8.73712C17.6873 9.00984 17.0737 9.49541 16.6442 10.1282C16.2146 10.7609 15.9898 11.5104 16 12.2751V13.1084C14.5356 13.1464 13.0844 12.8216 11.7759 12.163C10.4673 11.5043 9.34197 10.5323 8.50004 9.33341C8.50004 9.33341 5.16671 16.8334 12.6667 20.1667C10.9505 21.3317 8.906 21.9159 6.83337 21.8334C14.3334 26.0001 23.5 21.8334 23.5 12.2501C23.4993 12.018 23.477 11.7864 23.4334 11.5584C24.2839 10.7197 24.8841 9.66067 25.1667 8.50008V8.50008Z" stroke="white" stroke-linecap="round" stroke-linejoin="round"/>
</svg>
