<svg width="32" height="32" viewBox="0 0 32 32" fill="none" xmlns="http://www.w3.org/2000/svg">
<circle cx="16" cy="16" r="16" fill="#0D28A6"/>
<path d="M20.1666 7.6665H11.8333C9.53211 7.6665 7.66663 9.53198 7.66663 11.8332V20.1665C7.66663 22.4677 9.53211 24.3332 11.8333 24.3332H20.1666C22.4678 24.3332 24.3333 22.4677 24.3333 20.1665V11.8332C24.3333 9.53198 22.4678 7.6665 20.1666 7.6665Z" stroke="white" stroke-linecap="round" stroke-linejoin="round"/>
<path d="M19.3334 15.4748C19.4362 16.1683 19.3178 16.8766 18.9948 17.4989C18.6719 18.1213 18.161 18.6259 17.5347 18.9412C16.9085 19.2564 16.1987 19.3661 15.5065 19.2547C14.8143 19.1433 14.1748 18.8165 13.6791 18.3207C13.1833 17.825 12.8565 17.1855 12.7451 16.4933C12.6337 15.8011 12.7434 15.0913 13.0586 14.4651C13.3739 13.8388 13.8785 13.3279 14.5009 13.005C15.1232 12.682 15.8315 12.5636 16.525 12.6664C17.2325 12.7713 17.8874 13.101 18.3931 13.6067C18.8988 14.1124 19.2285 14.7673 19.3334 15.4748Z" stroke="white" stroke-linecap="round" stroke-linejoin="round"/>
<path d="M20.5834 11.4165H20.5917" stroke="white" stroke-linecap="round" stroke-linejoin="round"/>
</svg>
